# xmcd CD database file generated by OrangeCD 6.5
#
# Track frame offsets:
#	150
#	11744
#	25006
#	42079
#	62011
#	80742
#	98988
#	114949
#	137386
#	158712
#	176818
#	194287
#	210301
#	225986
#
# Disc length: 3204 seconds
#
# Revision: 0
# Processed by: cddbd v1.5.2PL0 Copyright (c) Steve Scherf et al.
# Submitted via: OrangeCD 6.5
#
DISCID=a70c820e
DTITLE=Trio - Dolly Parton, Emmylou Harris, Linda Ronstadt - My Dear Companion:
DTITLE=Selections from the Trio Collection
DYEAR=2016
DGENRE=Tradional Country
TTITLE0=The Pain Of Loving You
TTITLE1=My Dear Companion
TTITLE2=To Know Him Is To Love Him
TTITLE3=Telling Me Lies
TTITLE4=Farther Along
TTITLE5=Lover's Return
TTITLE6=After The Gold Rush
TTITLE7=The Blue Train
TTITLE8=You'll Never Be The Sun
TTITLE9=When We're Gone, Long Gone
TTITLE10=Waltz Across Texas Tonight <Unreleased 1994>
TTITLE11=Do I Ever Cross Your Mind <Dolly Lead - Alternate Take 1994>
TTITLE12=Wildflowers <Alternate Take 1986>
TTITLE13=Calling My Children Home <Unreleased Acappella Version 1986>
EXTD=
EXTT0=
EXTT1=
EXTT2=
EXTT3=
EXTT4=
EXTT5=
EXTT6=
EXTT7=
EXTT8=
EXTT9=
EXTT10=
EXTT11=
EXTT12=
EXTT13=
PLAYORDER=
